<svg width="1627" height="215" viewBox="0 0 1627 215" fill="none" xmlns="http://www.w3.org/2000/svg">
<path d="M828.694 162.021C857.101 190.428 903.158 190.428 931.565 162.021C959.972 133.615 959.972 87.5577 931.565 59.1507L916.906 57.3505L918.706 72.0096C940.011 93.3148 940.011 127.857 918.706 149.163C897.401 170.468 862.858 170.468 841.553 149.163L843.867 164.336L828.694 162.021Z" fill="#110133"/>
<path d="M923.849 51.4355C895.442 23.0285 849.385 23.0285 820.978 51.4355C792.572 79.8425 792.572 125.899 820.978 154.306L835.638 156.106L833.837 141.447C812.532 120.142 812.532 85.5996 833.837 64.2943C855.143 42.9891 889.685 42.9891 910.99 64.2943L908.676 49.1209L923.849 51.4355Z" fill="#71A95A"/>
<path d="M878.566 213.857L847.698 175.123H909.433L878.566 213.857Z" fill="#110133"/>
<path fill-rule="evenodd" clip-rule="evenodd" d="M855.49 104.48C856.823 94.5188 865.231 87.0798 875.146 86.8342L844.243 70.2656L855.49 104.48ZM895.637 111.254C893.673 120.976 884.888 127.964 874.847 127.547L906.588 144.565L895.637 111.254Z" fill="#71A95A"/>
<circle cx="875.656" cy="107.656" r="10.1837" fill="#71A95A"/>
<path d="M49.8418 167.887C33.9937 167.887 21.708 163.029 12.9848 153.314C4.32828 143.532 0 129.724 0 111.89C0 93.5901 4.39487 79.4495 13.1846 69.4679C22.0409 59.4862 34.6263 54.4954 50.9405 54.4954C56.2011 54.4954 61.4616 55.061 66.7221 56.1923C71.9827 57.3235 76.1112 58.6544 79.1077 60.1849L74.0136 74.259C70.3512 72.7951 66.3559 71.5973 62.0276 70.6656C57.6993 69.6675 53.8705 69.1684 50.541 69.1684C28.3003 69.1684 17.18 83.3423 17.18 111.69C17.18 125.132 19.8768 135.446 25.2705 142.633C30.7308 149.82 38.7881 153.413 49.4423 153.413C58.565 153.413 67.9207 151.45 77.5095 147.524V162.197C70.1848 165.99 60.9622 167.887 49.8418 167.887Z" fill="#110133"/>
<path d="M202.16 111.091C202.16 128.925 197.665 142.866 188.676 152.914C179.686 162.896 167.267 167.887 151.419 167.887C141.631 167.887 132.941 165.591 125.35 160.999C117.759 156.408 111.899 149.82 107.77 141.236C103.642 132.652 101.577 122.603 101.577 111.091C101.577 93.2574 106.039 79.3829 114.962 69.4679C123.885 59.4862 136.27 54.4954 152.118 54.4954C167.434 54.4954 179.586 59.586 188.576 69.7673C197.632 79.9486 202.16 93.7232 202.16 111.091ZM118.757 111.091C118.757 125.066 121.554 135.713 127.148 143.032C132.741 150.352 140.965 154.012 151.819 154.012C162.673 154.012 170.897 150.386 176.49 143.132C182.15 135.812 184.98 125.132 184.98 111.091C184.98 97.1835 182.15 86.6363 176.49 79.4495C170.897 72.1962 162.606 68.5695 151.619 68.5695C140.765 68.5695 132.575 72.1296 127.048 79.2498C121.521 86.3701 118.757 96.9839 118.757 111.091Z" fill="#110133"/>
<path d="M285.359 54.4954C290.22 54.4954 294.582 54.8947 298.444 55.6932L296.146 71.0649C291.618 70.0667 287.623 69.5677 284.16 69.5677C275.304 69.5677 267.713 73.1611 261.387 80.3478C255.128 87.5346 251.998 96.4848 251.998 107.198V165.89H235.417V56.4917H249.101L250.999 76.7544H251.798C255.86 69.6342 260.754 64.1443 266.481 60.2848C272.208 56.4252 278.5 54.4954 285.359 54.4954Z" fill="#110133"/>
<path d="M417.501 111.091C417.501 128.925 413.006 142.866 404.017 152.914C395.027 162.896 382.608 167.887 366.76 167.887C356.971 167.887 348.282 165.591 340.69 160.999C333.099 156.408 327.239 149.82 323.111 141.236C318.982 132.652 316.918 122.603 316.918 111.091C316.918 93.2574 321.38 79.3829 330.303 69.4679C339.225 59.4862 351.611 54.4954 367.459 54.4954C382.775 54.4954 394.927 59.586 403.917 69.7673C412.973 79.9486 417.501 93.7232 417.501 111.091ZM334.098 111.091C334.098 125.066 336.895 135.713 342.488 143.032C348.082 150.352 356.306 154.012 367.16 154.012C378.014 154.012 386.237 150.386 391.831 143.132C397.491 135.812 400.321 125.132 400.321 111.091C400.321 97.1835 397.491 86.6363 391.831 79.4495C386.237 72.1962 377.947 68.5695 366.96 68.5695C356.106 68.5695 347.915 72.1296 342.388 79.2498C336.862 86.3701 334.098 96.9839 334.098 111.091Z" fill="#110133"/>
<path d="M525.671 165.89V95.1206C525.671 86.2037 523.64 79.5493 519.578 75.1574C515.516 70.7655 509.156 68.5695 500.5 68.5695C489.047 68.5695 480.656 71.6638 475.329 77.8524C470.002 84.041 467.339 94.2556 467.339 108.496V165.89H450.758V56.4917H464.242L466.939 71.4642H467.738C471.134 66.0741 475.895 61.9151 482.021 58.9871C488.148 55.9927 494.973 54.4954 502.498 54.4954C515.682 54.4954 525.604 57.6895 532.263 64.0778C538.922 70.3995 542.251 80.5475 542.251 94.5217V165.89H525.671Z" fill="#110133"/>
<path d="M647.824 165.89L644.528 150.319H643.729C638.268 157.173 632.808 161.831 627.348 164.293C621.954 166.689 615.195 167.887 607.072 167.887C596.218 167.887 587.694 165.092 581.501 159.502C575.375 153.912 572.312 145.96 572.312 135.646C572.312 113.553 589.991 101.975 625.35 100.91L643.928 100.311V93.5236C643.928 84.9394 642.064 78.6177 638.335 74.5585C634.673 70.4327 628.779 68.3699 620.656 68.3699C611.533 68.3699 601.212 71.1647 589.692 76.7544L584.598 64.0778C589.991 61.1498 595.885 58.8541 602.277 57.1904C608.736 55.5268 615.195 54.695 621.654 54.695C634.706 54.695 644.361 57.5897 650.621 63.3791C656.947 69.1684 660.11 78.4513 660.11 91.2278V165.89H647.824ZM610.368 154.212C620.689 154.212 628.78 151.384 634.639 145.727C640.566 140.071 643.529 132.152 643.529 121.971V112.089L626.948 112.788C613.764 113.254 604.241 115.317 598.382 118.977C592.588 122.57 589.692 128.193 589.692 135.846C589.692 141.835 591.49 146.393 595.086 149.521C598.748 152.648 603.842 154.212 610.368 154.212Z" fill="#110133"/>
<path d="M742.21 167.887C707.45 167.887 690.071 148.822 690.071 110.692C690.071 91.7269 694.798 77.2535 704.254 67.2719C713.71 57.2237 727.261 52.1996 744.907 52.1996C757.825 52.1996 769.411 54.7283 779.666 59.7857L770.677 83.3423C765.882 81.4125 761.421 79.8487 757.292 78.6509C753.164 77.3866 749.035 76.7544 744.907 76.7544C729.059 76.7544 721.134 88.0004 721.134 110.492C721.134 132.319 729.059 143.232 744.907 143.232C750.767 143.232 756.194 142.467 761.188 140.936C766.182 139.339 771.176 136.877 776.17 133.55V159.602C771.243 162.73 766.248 164.892 761.188 166.09C756.194 167.288 749.868 167.887 742.21 167.887Z" fill="#110133"/>
<path d="M1076.96 165.89H1046.49V100.71C1046.49 92.6585 1045.13 86.6363 1042.4 82.6436C1039.73 78.5844 1035.51 76.5548 1029.71 76.5548C1021.92 76.5548 1016.26 79.4162 1012.73 85.139C1009.2 90.8618 1007.44 100.278 1007.44 113.387V165.89H976.974V54.2958H1000.25L1004.34 68.5695H1006.04C1009.04 63.4456 1013.37 59.4529 1019.03 56.5915C1024.69 53.6636 1031.18 52.1996 1038.5 52.1996C1055.22 52.1996 1066.54 57.6563 1072.46 68.5695H1075.16C1078.16 63.3791 1082.55 59.3531 1088.34 56.4917C1094.2 53.6303 1100.8 52.1996 1108.12 52.1996C1120.77 52.1996 1130.33 55.4603 1136.79 61.9816C1143.31 68.4364 1146.58 78.8173 1146.58 93.1243V165.89H1116.01V100.71C1116.01 92.6585 1114.65 86.6363 1111.92 82.6436C1109.25 78.5844 1105.03 76.5548 1099.23 76.5548C1091.77 76.5548 1086.18 79.2166 1082.45 84.5401C1078.79 89.8636 1076.96 98.3148 1076.96 109.893V165.89Z" fill="#110133"/>
<path d="M1243.36 167.887C1230.24 167.887 1219.95 163.129 1212.5 153.613H1210.9C1211.96 162.929 1212.5 168.319 1212.5 169.783V215H1182.03V54.2958H1206.8L1211.1 68.7691H1212.5C1219.62 57.7228 1230.18 52.1996 1244.16 52.1996C1257.34 52.1996 1267.66 57.2903 1275.12 67.4715C1282.58 77.6528 1286.31 91.7934 1286.31 109.893C1286.31 121.805 1284.54 132.152 1281.02 140.936C1277.55 149.72 1272.59 156.408 1266.13 160.999C1259.67 165.591 1252.08 167.887 1243.36 167.887ZM1234.37 76.5548C1226.85 76.5548 1221.35 78.8839 1217.89 83.5419C1214.43 88.1335 1212.63 95.7528 1212.5 106.4V109.694C1212.5 121.672 1214.26 130.256 1217.79 135.446C1221.39 140.637 1227.05 143.232 1234.77 143.232C1248.42 143.232 1255.25 131.986 1255.25 109.494C1255.25 98.5144 1253.55 90.2962 1250.15 84.8396C1246.82 79.3164 1241.56 76.5548 1234.37 76.5548Z" fill="#110133"/>
<path d="M1386.49 165.89L1380.6 150.718H1379.8C1374.67 157.173 1369.38 161.665 1363.91 164.194C1358.52 166.656 1351.46 167.887 1342.74 167.887C1332.02 167.887 1323.56 164.826 1317.37 158.704C1311.24 152.582 1308.18 143.864 1308.18 132.552C1308.18 120.707 1312.31 111.99 1320.57 106.4C1328.89 100.744 1341.41 97.616 1358.12 97.0171L1377.5 96.4182V91.5273C1377.5 80.2147 1371.71 74.5585 1360.12 74.5585C1351.2 74.5585 1340.71 77.2535 1328.66 82.6436L1318.57 62.0814C1331.42 55.3605 1345.67 52 1361.32 52C1376.3 52 1387.79 55.2607 1395.78 61.782C1403.77 68.3033 1407.76 78.2184 1407.76 91.5273V165.89H1386.49ZM1377.5 114.186L1365.71 114.585C1356.86 114.851 1350.26 116.448 1345.94 119.376C1341.61 122.304 1339.44 126.762 1339.44 132.751C1339.44 141.336 1344.37 145.628 1354.23 145.628C1361.28 145.628 1366.91 143.598 1371.11 139.539C1375.37 135.48 1377.5 130.09 1377.5 123.369V114.186Z" fill="#110133"/>
<path d="M1521.23 132.751C1521.23 144.197 1517.23 152.914 1509.24 158.903C1501.32 164.892 1489.43 167.887 1473.58 167.887C1465.46 167.887 1458.53 167.321 1452.81 166.19C1447.08 165.125 1441.72 163.528 1436.73 161.399V136.245C1442.39 138.907 1448.75 141.136 1455.8 142.933C1462.93 144.729 1469.19 145.628 1474.58 145.628C1485.64 145.628 1491.16 142.434 1491.16 136.045C1491.16 133.65 1490.43 131.72 1488.96 130.256C1487.5 128.725 1484.97 127.029 1481.37 125.165C1477.78 123.236 1472.98 121.006 1466.99 118.478C1458.4 114.884 1452.07 111.557 1448.01 108.496C1444.02 105.435 1441.09 101.941 1439.22 98.0153C1437.43 94.0227 1436.53 89.1317 1436.53 83.3423C1436.53 73.4272 1440.36 65.7746 1448.01 60.3846C1455.74 54.9279 1466.66 52.1996 1480.77 52.1996C1494.23 52.1996 1507.31 55.1276 1520.03 60.9835L1510.84 82.9431C1505.25 80.5475 1500.02 78.5844 1495.16 77.0539C1490.3 75.5234 1485.34 74.7581 1480.28 74.7581C1471.29 74.7581 1466.79 77.187 1466.79 82.0447C1466.79 84.773 1468.22 87.1353 1471.09 89.1317C1474.02 91.128 1480.37 94.0892 1490.16 98.0153C1498.89 101.542 1505.28 104.836 1509.34 107.897C1513.4 110.958 1516.4 114.485 1518.33 118.478C1520.26 122.47 1521.23 127.228 1521.23 132.751Z" fill="#110133"/>
<path d="M1627 132.751C1627 144.197 1623 152.914 1615.01 158.903C1607.09 164.892 1595.2 167.887 1579.36 167.887C1571.23 167.887 1564.31 167.321 1558.58 166.19C1552.85 165.125 1547.49 163.528 1542.5 161.399V136.245C1548.16 138.907 1554.52 141.136 1561.58 142.933C1568.7 144.729 1574.96 145.628 1580.35 145.628C1591.41 145.628 1596.94 142.434 1596.94 136.045C1596.94 133.65 1596.2 131.72 1594.74 130.256C1593.27 128.725 1590.74 127.029 1587.15 125.165C1583.55 123.236 1578.76 121.006 1572.76 118.478C1564.17 114.884 1557.85 111.557 1553.79 108.496C1549.79 105.435 1546.86 101.941 1545 98.0153C1543.2 94.0227 1542.3 89.1317 1542.3 83.3423C1542.3 73.4272 1546.13 65.7746 1553.79 60.3846C1561.51 54.9279 1572.43 52.1996 1586.55 52.1996C1600 52.1996 1613.08 55.1276 1625.8 60.9835L1616.61 82.9431C1611.02 80.5475 1605.79 78.5844 1600.93 77.0539C1596.07 75.5234 1591.11 74.7581 1586.05 74.7581C1577.06 74.7581 1572.56 77.187 1572.56 82.0447C1572.56 84.773 1574 87.1353 1576.86 89.1317C1579.79 91.128 1586.15 94.0892 1595.94 98.0153C1604.66 101.542 1611.05 104.836 1615.11 107.897C1619.18 110.958 1622.17 114.485 1624.1 118.478C1626.03 122.47 1627 127.228 1627 132.751Z" fill="#110133"/>
</svg>
